<?xml version="1.0" ?><svg id="icons" viewBox="0 0 480 480" xmlns="http://www.w3.org/2000/svg" xmlns:xlink="http://www.w3.org/1999/xlink"><defs><style>.cls-1{fill:#f95200;}.cls-2{fill:url(#linear-gradient);}.cls-3{fill:url(#linear-gradient-2);}.cls-4{fill:url(#linear-gradient-3);}.cls-5{fill:url(#linear-gradient-4);}.cls-6{fill:url(#linear-gradient-5);}.cls-7{fill:url(#linear-gradient-6);}.cls-8{fill:url(#linear-gradient-7);}.cls-9{fill:url(#linear-gradient-8);}.cls-10{fill:url(#linear-gradient-9);}.cls-11{fill:url(#linear-gradient-10);}.cls-12{fill:url(#linear-gradient-11);}.cls-13{fill:url(#linear-gradient-12);}.cls-14{fill:url(#linear-gradient-13);}.cls-15{fill:url(#linear-gradient-14);}.cls-16{fill:url(#linear-gradient-15);}.cls-17{fill:url(#linear-gradient-16);}.cls-18{fill:#4333e5;}.cls-19{fill:url(#linear-gradient-17);}.cls-20{fill:url(#linear-gradient-18);}.cls-21{fill:url(#linear-gradient-19);}.cls-22{fill:url(#linear-gradient-20);}.cls-23{fill:url(#radial-gradient);}.cls-24{fill:url(#linear-gradient-21);}.cls-25{fill:url(#linear-gradient-22);}.cls-26{fill:url(#linear-gradient-23);}.cls-27{fill:url(#linear-gradient-24);}.cls-28{fill:url(#linear-gradient-25);}.cls-29{fill:url(#linear-gradient-26);}.cls-30{fill:url(#linear-gradient-27);}.cls-31{fill:url(#linear-gradient-28);}.cls-32{fill:url(#linear-gradient-29);}.cls-33{fill:url(#linear-gradient-30);}.cls-34{fill:url(#linear-gradient-31);}.cls-35{fill:url(#linear-gradient-32);}.cls-36{fill:url(#linear-gradient-33);}.cls-37{fill:url(#radial-gradient-2);}.cls-38{fill:url(#linear-gradient-34);}.cls-39{fill:url(#linear-gradient-35);}.cls-40{fill:url(#linear-gradient-36);}</style><linearGradient gradientUnits="userSpaceOnUse" id="linear-gradient" x1="234.07" x2="234.07" y1="221.31" y2="112.54"><stop offset="0" stop-color="#f95200"/><stop offset="0.33" stop-color="#ffa100"/><stop offset="0.67" stop-color="#ff79e5"/><stop offset="1" stop-color="#4333e5"/></linearGradient><linearGradient gradientUnits="userSpaceOnUse" id="linear-gradient-2" x1="234.07" x2="234.07" y1="373.26" y2="264.48"><stop offset="0" stop-color="#4333e5"/><stop offset="0.33" stop-color="#ff79e5"/><stop offset="0.67" stop-color="#ffa100"/><stop offset="1" stop-color="#f95200"/></linearGradient><linearGradient id="linear-gradient-3" x1="188.49" x2="215.8" xlink:href="#linear-gradient-2" y1="165.83" y2="165.83"/><linearGradient id="linear-gradient-4" x1="252.34" x2="279.65" xlink:href="#linear-gradient" y1="319.97" y2="319.97"/><linearGradient id="linear-gradient-5" x1="127.22" x2="186.78" xlink:href="#linear-gradient-2" y1="210.97" y2="210.97"/><linearGradient id="linear-gradient-6" x1="281.36" x2="340.92" xlink:href="#linear-gradient" y1="274.82" y2="274.82"/><linearGradient id="linear-gradient-7" x1="252.34" x2="279.65" xlink:href="#linear-gradient" y1="165.83" y2="165.83"/><linearGradient id="linear-gradient-8" x1="188.49" x2="215.8" xlink:href="#linear-gradient-2" y1="319.97" y2="319.97"/><linearGradient id="linear-gradient-9" x1="281.36" x2="340.92" xlink:href="#linear-gradient" y1="210.97" y2="210.97"/><linearGradient id="linear-gradient-10" x1="127.22" x2="186.78" xlink:href="#linear-gradient-2" y1="274.82" y2="274.82"/><linearGradient id="linear-gradient-11" x1="162.3" x2="219.47" xlink:href="#linear-gradient-2" y1="199.71" y2="199.71"/><linearGradient id="linear-gradient-12" x1="248.67" x2="305.84" xlink:href="#linear-gradient" y1="286.08" y2="286.08"/><linearGradient id="linear-gradient-13" x1="248.67" x2="305.84" xlink:href="#linear-gradient" y1="199.71" y2="199.71"/><linearGradient id="linear-gradient-14" x1="162.3" x2="219.47" xlink:href="#linear-gradient-2" y1="286.08" y2="286.08"/><linearGradient id="linear-gradient-15" x1="103.71" x2="212.49" xlink:href="#linear-gradient-2" y1="242.9" y2="242.9"/><linearGradient id="linear-gradient-16" x1="255.66" x2="364.43" xlink:href="#linear-gradient" y1="242.9" y2="242.9"/><linearGradient gradientUnits="userSpaceOnUse" id="linear-gradient-17" x1="154.46" x2="161.74" y1="230.9" y2="230.9"><stop offset="0" stop-color="#f95200"/><stop offset="1" stop-color="#ffa100"/></linearGradient><linearGradient gradientUnits="userSpaceOnUse" id="linear-gradient-18" x1="154.46" x2="161.74" y1="293.79" y2="293.79"><stop offset="0" stop-color="#ff79e5"/><stop offset="1" stop-color="#4333e5"/></linearGradient><linearGradient id="linear-gradient-19" x1="213.58" x2="220.86" xlink:href="#linear-gradient-17" y1="323.48" y2="323.48"/><linearGradient id="linear-gradient-20" x1="160.06" x2="169.04" xlink:href="#linear-gradient-18" y1="199.57" y2="199.57"/><radialGradient cx="311.14" cy="185.47" gradientTransform="translate(222.29 -165.69) rotate(45)" id="radial-gradient" r="1.12" xlink:href="#linear-gradient"/><linearGradient id="linear-gradient-21" x1="151.51" x2="159.25" xlink:href="#linear-gradient-18" y1="185.64" y2="185.64"/><linearGradient id="linear-gradient-22" x1="332.25" x2="342.16" xlink:href="#linear-gradient-18" y1="219.58" y2="219.58"/><linearGradient id="linear-gradient-23" x1="267.09" x2="277" xlink:href="#linear-gradient-18" y1="301.99" y2="301.99"/><linearGradient id="linear-gradient-24" x1="216.36" x2="224.1" xlink:href="#linear-gradient-17" y1="166.92" y2="166.92"/><linearGradient id="linear-gradient-25" x1="240.93" x2="250.83" xlink:href="#linear-gradient-18" y1="147.13" y2="147.13"/><linearGradient id="linear-gradient-26" x1="268.45" x2="275.65" xlink:href="#linear-gradient-17" y1="187.33" y2="187.33"/><linearGradient id="linear-gradient-27" x1="305.99" x2="313.27" xlink:href="#linear-gradient-17" y1="230.82" y2="230.82"/><linearGradient id="linear-gradient-28" x1="157.76" x2="166.89" xlink:href="#linear-gradient-17" y1="257.19" y2="257.19"/><linearGradient id="linear-gradient-29" x1="340.95" x2="350.09" xlink:href="#linear-gradient-18" y1="263.34" y2="263.34"/><linearGradient id="linear-gradient-30" x1="289.2" x2="296.48" xlink:href="#linear-gradient-17" y1="282" y2="282"/><linearGradient id="linear-gradient-31" x1="246.87" x2="254.16" xlink:href="#linear-gradient-17" y1="323.4" y2="323.4"/><linearGradient id="linear-gradient-32" x1="280.96" x2="289.94" xlink:href="#linear-gradient-18" y1="160.23" y2="160.23"/><linearGradient id="linear-gradient-33" x1="280.96" x2="289.94" xlink:href="#linear-gradient-17" y1="208.37" y2="208.37"/><radialGradient cx="190.75" cy="311.14" gradientTransform="translate(275.88 -43.75) rotate(45)" id="radial-gradient-2" r="1.12" xlink:href="#linear-gradient"/><linearGradient id="linear-gradient-34" x1="187.38" x2="194.11" xlink:href="#linear-gradient-18" y1="311.14" y2="311.14"/><linearGradient id="linear-gradient-35" x1="310.04" x2="317.78" xlink:href="#linear-gradient-17" y1="257.19" y2="257.19"/><linearGradient id="linear-gradient-36" x1="243.63" x2="251.37" xlink:href="#linear-gradient-17" y1="166.84" y2="166.84"/></defs><title/><path class="cls-1" d="M233.74,231.71a11.19,11.19,0,1,0,11.19,11.19A11.2,11.2,0,0,0,233.74,231.71Zm0,17.88a6.69,6.69,0,1,1,6.69-6.69A6.7,6.7,0,0,1,233.74,249.58Z"/><path class="cls-2" d="M234.07,221.31a2.25,2.25,0,0,0,2.25-2.25V114.79a2.25,2.25,0,0,0-4.5,0V219.06A2.25,2.25,0,0,0,234.07,221.31Z"/><path class="cls-3" d="M234.07,264.48a2.25,2.25,0,0,0-2.25,2.25V371a2.25,2.25,0,0,0,4.5,0V266.73A2.25,2.25,0,0,0,234.07,264.48Z"/><path class="cls-4" d="M211.47,194.21a2.25,2.25,0,1,0,4.16-1.72l-22.8-55.05a2.25,2.25,0,0,0-4.16,1.72Z"/><path class="cls-5" d="M256.67,291.58a2.25,2.25,0,1,0-4.16,1.72l22.8,55a2.25,2.25,0,0,0,4.16-1.72Z"/><path class="cls-6" d="M184.52,224.62a2.25,2.25,0,0,0,.86-4.33l-55.05-22.8a2.25,2.25,0,0,0-1.72,4.16l55.05,22.8A2.25,2.25,0,0,0,184.52,224.62Z"/><path class="cls-7" d="M339.53,284.14l-55.05-22.8a2.25,2.25,0,1,0-1.72,4.16l55.05,22.8a2.25,2.25,0,0,0,1.72-4.16Z"/><path class="cls-8" d="M253.73,195.43a2.25,2.25,0,0,0,2.94-1.22l22.8-55.05a2.25,2.25,0,0,0-4.16-1.72l-22.8,55.05A2.25,2.25,0,0,0,253.73,195.43Z"/><path class="cls-9" d="M214.41,290.36a2.25,2.25,0,0,0-2.94,1.22l-22.8,55a2.25,2.25,0,1,0,4.16,1.72l22.8-55A2.25,2.25,0,0,0,214.41,290.36Z"/><path class="cls-10" d="M340.75,198.71a2.25,2.25,0,0,0-2.94-1.22l-55.05,22.8a2.25,2.25,0,1,0,1.72,4.16l55.05-22.8A2.25,2.25,0,0,0,340.75,198.71Z"/><path class="cls-11" d="M186.6,262.56a2.25,2.25,0,0,0-2.94-1.22l-55.05,22.8a2.25,2.25,0,1,0,1.72,4.16l55.05-22.8A2.25,2.25,0,0,0,186.6,262.56Z"/><path class="cls-12" d="M217.22,228.29a2.25,2.25,0,0,0,1.59-3.84l-52.67-52.67A2.25,2.25,0,1,0,163,175l52.67,52.67A2.24,2.24,0,0,0,217.22,228.29Z"/><path class="cls-13" d="M252.51,258.16a2.25,2.25,0,1,0-3.18,3.18L302,314a2.25,2.25,0,1,0,3.18-3.18Z"/><path class="cls-14" d="M249.33,227.63a2.25,2.25,0,0,0,3.18,0L305.18,175a2.25,2.25,0,1,0-3.18-3.18l-52.67,52.67A2.25,2.25,0,0,0,249.33,227.63Z"/><path class="cls-15" d="M164.55,314.67a2.24,2.24,0,0,0,1.59-.66l52.67-52.67a2.25,2.25,0,1,0-3.18-3.18L163,310.83a2.25,2.25,0,0,0,1.59,3.84Z"/><path class="cls-16" d="M212.49,242.9a2.25,2.25,0,0,0-2.25-2.25H106a2.25,2.25,0,0,0,0,4.5H210.24A2.25,2.25,0,0,0,212.49,242.9Z"/><path class="cls-17" d="M362.18,240.65H257.91a2.25,2.25,0,0,0,0,4.5H362.18a2.25,2.25,0,0,0,0-4.5Z"/><path class="cls-1" d="M196.85,198.09a2.26,2.26,0,0,0,2.1,1.12h.11l.07.09a2.25,2.25,0,0,0,1.77.86,2.25,2.25,0,0,0,2.18-1.69l0-.11.11,0a2.25,2.25,0,0,0,.42-4l-.1-.06v-.11a2.25,2.25,0,0,0-3.69-1.64l-.09.07-.11,0a2.25,2.25,0,0,0-2.7,3l0,.11-.06.1A2.25,2.25,0,0,0,196.85,198.09Z"/><path class="cls-18" d="M290.71,325.46l-.1-.06v-.11a2.25,2.25,0,0,0-3.69-1.64l-.09.07-.11,0a2.25,2.25,0,0,0-2.7,3l0,.11-.06.1a2.25,2.25,0,0,0,2,3.49h.11l.07.09a2.25,2.25,0,0,0,3.95-.84l0-.11.11,0a2.25,2.25,0,0,0,.42-4Z"/><path class="cls-19" d="M160.46,227.89a2.25,2.25,0,0,0-2.17-.37,3.11,3.11,0,0,0-2.23,5.79,2.25,2.25,0,0,0,1.86,1.17H158a3.1,3.1,0,0,0,3.23-4.56A2.25,2.25,0,0,0,160.46,227.89Z"/><path class="cls-18" d="M125.88,262.25l.1-.43a2.25,2.25,0,0,0-3.14-2.54l-.4.18-.38-.22a2.25,2.25,0,0,0-3.38,2.2l.05.43-.33.29a2.25,2.25,0,0,0,1,3.9l.43.08.17.4a2.25,2.25,0,0,0,1.95,1.36h.12a2.25,2.25,0,0,0,2-1.15l.21-.38.44,0a2.25,2.25,0,0,0,1.45-3.77Z"/><path class="cls-18" d="M252.56,127.34a2.25,2.25,0,0,0,1.86,1.17h.12a3.1,3.1,0,0,0,3.23-4.56,3.11,3.11,0,0,0-6.2-.33,2.25,2.25,0,0,0,1,3.71Z"/><path class="cls-20" d="M160.46,290.78a2.25,2.25,0,0,0-2.17-.37,3.56,3.56,0,0,0-.37,7H158a4.19,4.19,0,0,0,2.42-6.6Z"/><path class="cls-21" d="M219.58,320.47a3.11,3.11,0,0,0-5.38,1.72,4.16,4.16,0,0,0,2.85,4.88h.12a4.19,4.19,0,0,0,2.41-6.6Z"/><path class="cls-18" d="M182.28,164.8a4.49,4.49,0,1,0-3.17-1.31A4.47,4.47,0,0,0,182.28,164.8Z"/><path class="cls-18" d="M313.43,301a4.49,4.49,0,1,0,6.35,0A4.49,4.49,0,0,0,313.43,301Z"/><path class="cls-22" d="M167.72,202.75a4.49,4.49,0,1,0-3.17,1.31A4.5,4.5,0,0,0,167.72,202.75Z"/><circle class="cls-23" cx="311.14" cy="185.47" r="1.12" transform="translate(-40.01 274.35) rotate(-45)"/><path class="cls-18" d="M311.14,188.84a3.37,3.37,0,1,0-2.38-1A3.36,3.36,0,0,0,311.14,188.84Z"/><path class="cls-18" d="M128.73,163.39l-.1.37a2.25,2.25,0,0,0,3,2.7l.35-.14.32.21a2.25,2.25,0,0,0,3.5-2l0-.38.3-.24a2.25,2.25,0,0,0-.84-3.95l-.37-.09-.13-.36a2.25,2.25,0,0,0-4-.42l-.2.32-.38,0a2.25,2.25,0,0,0-1.64,3.69Z"/><path class="cls-24" d="M151.87,187.8a2.25,2.25,0,0,0,2.14,1,3.26,3.26,0,0,0,4.1-5.06,2.25,2.25,0,0,0-3.76-1.44,2.25,2.25,0,0,0-2.53,3.13A2.25,2.25,0,0,0,151.87,187.8Z"/><path class="cls-25" d="M332.61,222.36a2.23,2.23,0,0,0,2.15,1l.77-.09.51.58a2.25,2.25,0,0,0,3.9-1l.15-.75.71-.3a2.25,2.25,0,0,0,.21-4l-.67-.38-.07-.77a2.25,2.25,0,0,0-3.77-1.45l-.57.52-.75-.17a2.25,2.25,0,0,0-2.54,3.14l.32.7-.39.66A2.25,2.25,0,0,0,332.61,222.36Z"/><path class="cls-26" d="M267.46,304.77a2.24,2.24,0,0,0,2.15,1l.76-.09.51.58a2.25,2.25,0,0,0,1.69.77,2.28,2.28,0,0,0,.58-.08,2.25,2.25,0,0,0,1.63-1.73l.15-.76.71-.3a2.25,2.25,0,0,0,.21-4l-.67-.38-.07-.77a2.25,2.25,0,0,0-3.77-1.45l-.57.52-.75-.17a2.25,2.25,0,0,0-2.54,3.14l.32.7-.39.66A2.25,2.25,0,0,0,267.46,304.77Z"/><path class="cls-18" d="M127.25,190a2.25,2.25,0,0,0,2.14,1,3.26,3.26,0,0,0,4.1-5.06,2.25,2.25,0,0,0-3.76-1.44,2.25,2.25,0,0,0-2.53,3.13A2.25,2.25,0,0,0,127.25,190Z"/><path class="cls-18" d="M94.35,253.62a2.25,2.25,0,0,0-3.76-1.44,3.26,3.26,0,0,0-.34,6.5,2.25,2.25,0,0,0,3.89-1,2.25,2.25,0,0,0,.21-4Z"/><path class="cls-18" d="M104.29,222.6a2.24,2.24,0,0,0,2.14,1,2.25,2.25,0,0,0,3.89-1,2.25,2.25,0,0,0,.21-4,2.25,2.25,0,0,0-3.76-1.44,4.66,4.66,0,0,0-2.48,5.5Z"/><path class="cls-27" d="M216.67,166.71a3.26,3.26,0,0,0,6.08,2.33,2.25,2.25,0,0,0,.21-4,3.26,3.26,0,0,0-6.29,1.68Z"/><path class="cls-18" d="M201.35,135.43a4.95,4.95,0,1,0-3.5-1.45A4.93,4.93,0,0,0,201.35,135.43Z"/><path class="cls-28" d="M242.38,143.63a5,5,0,1,0,7,0A4.91,4.91,0,0,0,242.38,143.63Z"/><path class="cls-29" d="M274.59,189.86a3.6,3.6,0,0,0,0-5.09,3.69,3.69,0,0,0-5.09,0,3.6,3.6,0,0,0,5.09,5.09Z"/><path class="cls-18" d="M159.73,155.44l.11,0,0,.11a2.25,2.25,0,0,0,3.95.84l.07-.09H164a2.25,2.25,0,0,0,2-3.49l-.06-.09,0-.11a2.25,2.25,0,0,0-2.7-3l-.11,0-.09-.07a2.25,2.25,0,0,0-3.69,1.64v.11l-.1.06a2.25,2.25,0,0,0,.42,4Z"/><path class="cls-18" d="M218.15,343.46l0-.11a2.25,2.25,0,0,0-2.7-3l-.11,0-.09-.07a2.25,2.25,0,0,0-3.69,1.64v.11l-.1.06a2.25,2.25,0,0,0,.42,4l.11,0,0,.11a2.25,2.25,0,0,0,3.95.84l.07-.09h.11a2.25,2.25,0,0,0,2-3.49Z"/><path class="cls-30" d="M306.14,232a10.25,10.25,0,0,0,3.54,2.38h.12a3.11,3.11,0,0,0,2.85-4.88,3.56,3.56,0,0,0-6.51,2.5Z"/><path class="cls-31" d="M157.91,258.67a2.25,2.25,0,0,0,1.89,1.43l.44,0,.21.38a2.25,2.25,0,0,0,2,1.15h.12a2.25,2.25,0,0,0,1.95-1.36l.17-.4.43-.09a2.25,2.25,0,0,0,1-3.9l-.33-.29.05-.43a2.25,2.25,0,0,0-3.38-2.2l-.38.22-.4-.18a2.25,2.25,0,0,0-3.14,2.54l.1.43-.3.32A2.25,2.25,0,0,0,157.91,258.67Z"/><path class="cls-32" d="M349,261.79l.05-.43a2.25,2.25,0,0,0-3.38-2.2l-.38.22-.4-.18a2.25,2.25,0,0,0-3.14,2.54l.1.43-.3.32a2.25,2.25,0,0,0,1.45,3.77l.44,0,.21.38a2.25,2.25,0,0,0,2,1.15h.12a2.25,2.25,0,0,0,1.95-1.36l.17-.4.43-.08a2.25,2.25,0,0,0,1-3.9Z"/><path class="cls-18" d="M209.65,126.06a10.26,10.26,0,0,0,3.54,2.38h.12a3.11,3.11,0,0,0,2.85-4.88,3.11,3.11,0,0,0-6.2.32A2.25,2.25,0,0,0,209.65,126.06Z"/><path class="cls-33" d="M289.35,283.21a10.25,10.25,0,0,0,3.54,2.38H293a3.11,3.11,0,1,0-3.66-2.38Z"/><path class="cls-34" d="M252.54,325.82a3.56,3.56,0,1,0-5.21-3.38,4.23,4.23,0,0,0,3.23,4.56h.12A2.25,2.25,0,0,0,252.54,325.82Z"/><path class="cls-35" d="M285.45,164.72a4.49,4.49,0,1,0-3.17-1.31A4.47,4.47,0,0,0,285.45,164.72Z"/><path class="cls-18" d="M145.71,305.73a4.49,4.49,0,1,0,6.35,0A4.49,4.49,0,0,0,145.71,305.73Z"/><path class="cls-36" d="M285.45,212.86a4.49,4.49,0,1,0-3.17-1.31A4.47,4.47,0,0,0,285.45,212.86Z"/><circle class="cls-37" cx="190.75" cy="311.14" r="1.12" transform="translate(-164.14 226.01) rotate(-45)"/><path class="cls-38" d="M193.13,313.52a3.37,3.37,0,1,0-2.39,1A3.38,3.38,0,0,0,193.13,313.52Z"/><path class="cls-18" d="M170.05,337.92a2.25,2.25,0,0,0-2.23-.78,3.83,3.83,0,0,0-1.92,7.19,2.28,2.28,0,0,0,.58.08,2.25,2.25,0,0,0,1.68-.76,4.66,4.66,0,0,0,1.89-5.72Z"/><path class="cls-18" d="M260.23,360.36l.32-.7a2.25,2.25,0,0,0-2.54-3.14l-.75.17-.57-.52a2.25,2.25,0,0,0-3.77,1.45l-.07.77-.67.38a2.25,2.25,0,0,0,.21,4l.71.3.15.75a2.25,2.25,0,0,0,3.9,1l.51-.58.77.09a2.25,2.25,0,0,0,2.2-3.38Z"/><path class="cls-18" d="M391.93,242.16l-.39-.66.32-.7a2.25,2.25,0,0,0-2.54-3.14l-.75.17-.57-.52a2.25,2.25,0,0,0-3.77,1.45l-.07.77-.67.38a2.25,2.25,0,0,0,.21,4l.71.3.15.76a2.25,2.25,0,0,0,3.9,1l.51-.58.77.09a2.25,2.25,0,0,0,2.2-3.38Z"/><path class="cls-18" d="M334.46,189.84a3.26,3.26,0,0,0,6.08-2.33,3.83,3.83,0,1,0-6.08,2.33Z"/><path class="cls-39" d="M317.17,254.63a3.83,3.83,0,1,0-5.78,4.68,3.26,3.26,0,0,0,6.08-2.33A2.25,2.25,0,0,0,317.17,254.63Z"/><path class="cls-18" d="M357.41,222.49a2.25,2.25,0,0,0,1.62,1.72,2.28,2.28,0,0,0,.58.08,3.15,3.15,0,0,0,3.88-4.13,3.83,3.83,0,1,0-6.08,2.33Z"/><path class="cls-40" d="M250.76,164.29a3.26,3.26,0,0,0-6,.66,3.26,3.26,0,1,0,4.1,5.06,2.25,2.25,0,0,0,2.19-3.38A2.25,2.25,0,0,0,250.76,164.29Z"/><path class="cls-18" d="M339.91,165.72a4.95,4.95,0,1,0-3.5-8.45h0a4.95,4.95,0,0,0,3.5,8.45Z"/><path class="cls-18" d="M316.61,163a4.95,4.95,0,1,0-3.5-8.45h0a4.95,4.95,0,0,0,3.5,8.45Z"/><path class="cls-18" d="M242.5,113.94a3.6,3.6,0,1,0-2.54-1.05A3.57,3.57,0,0,0,242.5,113.94Z"/><path class="cls-1" d="M247.14,278a2.25,2.25,0,0,0,1.95,1.36h.12a2.25,2.25,0,0,0,2-1.15l.21-.38.44,0a2.25,2.25,0,0,0,1.45-3.77l-.3-.32.1-.43a2.25,2.25,0,0,0-3.14-2.54l-.4.18-.38-.22a2.25,2.25,0,0,0-3.38,2.2l.05.44-.33.29a2.25,2.25,0,0,0,1,3.9l.43.08Z"/><path class="cls-1" d="M268.38,257.39a3.37,3.37,0,1,0-2.38,1A3.37,3.37,0,0,0,268.38,257.39Z"/><path class="cls-1" d="M250.42,211.82a3.37,3.37,0,1,0-2.38-1A3.36,3.36,0,0,0,250.42,211.82Z"/><path class="cls-1" d="M199.76,229.86a3.37,3.37,0,1,0,4.77,0A3.37,3.37,0,0,0,199.76,229.86Z"/><path class="cls-1" d="M199.35,252.54a3.37,3.37,0,1,0,4.77,0A3.37,3.37,0,0,0,199.35,252.54Z"/><path class="cls-1" d="M219.7,206a3.37,3.37,0,1,0,0,4.77A3.37,3.37,0,0,0,219.7,206Z"/><path class="cls-1" d="M263.2,229.78a3.37,3.37,0,1,0,4.77,0A3.37,3.37,0,0,0,263.2,229.78Z"/><path class="cls-1" d="M222.54,274l-.38,0-.2-.32a2.25,2.25,0,0,0-4,.42l-.13.36-.37.09a2.25,2.25,0,0,0-.84,3.95l.3.24,0,.38a2.25,2.25,0,0,0,3.5,2l.32-.21.35.14a2.25,2.25,0,0,0,3-2.7l-.1-.37.24-.29a2.25,2.25,0,0,0-1.64-3.69Z"/></svg>